# xmcd CD database file
#
# Track frame offsets:
#	150
#	8678
#	14722
#	20588
#	27961
#	34020
#	42263
#	48006
#	53802
#	62031
#	72811
#	86083
#	95751
#	103885
#	110893
#	118136
#	123449
#	131100
#	137216
#	143426
#	150073
#	155875
#	163538
#	169588
#	176919
#	181817
#	190986
#	196988
#	200503
#	207981
#	214825
#	222751
#	230104
#	241521
#	249628
#	256691
#	262908
#	268086
#
# Disc length: 3688 seconds
#
# Revision: 1
# Processed by: cddbd v1.4PL0 Copyright (c) Steve Scherf et al.
# Submitted via: CDex 1.40Release
#
DISCID=270e6626
DTITLE=Various Artist - Boogie Woogie Country Sing Along
DYEAR=1998
DGENRE=Country
TTITLE0=Boogie Woogie
TTITLE1=Good Hearted Woman
TTITLE2=Jambalayo
TTITLE3=Do What You Do Do Well
TTITLE4=Ashes Of Love
TTITLE5=Let Your Love Flow
TTITLE6=Achy Breaky Heart
TTITLE7=Rhinestone Cowboy
TTITLE8=Tulsa Time
TTITLE9=Mississippi
TTITLE10=Suspicious Minds
TTITLE11=Rub It In
TTITLE12=Living Next Door To Alice
TTITLE13=Blue Bayou
TTITLE14=Have I Told You Lately That I Love You
TTITLE15=Send Me The Pillow That You Dream On
TTITLE16=From A Jack To A King
TTITLE17=Queen Of Hearts
TTITLE18=Bye Bye Love
TTITLE19=Blanket On The Ground
TTITLE20=If Teardrops Were Pennies
TTITLE21=Puppet On A String
TTITLE22=On The Road Again
TTITLE23=Oh! Lonesome Me
TTITLE24=You Are My Sunshine
TTITLE25=Gentle On My Mind
TTITLE26=Jolene
TTITLE27=That's All Right Mama
TTITLE28=Grandma's Featherbed
TTITLE29=I Swear
TTITLE30=Help Me Make It Through The Night
TTITLE31=Love Hurts
TTITLE32=Words
TTITLE33=Paloma Blanca
TTITLE34=My Little Lady
TTITLE35=Hurry On Home
TTITLE36=Toy Train
TTITLE37=Boogie Woogie
EXTD=YEAR: 1998 ID3G: 2
EXTT0=
EXTT1=
EXTT2=
EXTT3=
EXTT4=
EXTT5=
EXTT6=
EXTT7=
EXTT8=
EXTT9=
EXTT10=
EXTT11=
EXTT12=
EXTT13=
EXTT14=
EXTT15=
EXTT16=
EXTT17=
EXTT18=
EXTT19=
EXTT20=
EXTT21=
EXTT22=
EXTT23=
EXTT24=
EXTT25=
EXTT26=
EXTT27=
EXTT28=
EXTT29=
EXTT30=
EXTT31=
EXTT32=
EXTT33=
EXTT34=
EXTT35=
EXTT36=
EXTT37=
PLAYORDER=
